<svg width="310" height="34" viewBox="0 0 310 34" fill="none" xmlns="http://www.w3.org/2000/svg">
<path d="M14.295 1V6.33333C9.86331 6.33333 1 9.88889 1 17C1 24.1111 9.86331 26.4815 14.295 27.6667V33H295.705V27.6667C300.137 27.6667 309 25.5333 309 17C309 8.46667 300.137 6.33333 295.705 6.33333V1H14.295Z" stroke="#FFEABC"/>
<path d="M65.134 10.8C66.2753 10.8 67.2727 11.0347 68.126 11.504C68.99 11.9627 69.662 12.6133 70.142 13.456C70.6327 14.2987 70.878 15.28 70.878 16.4C70.878 17.52 70.6327 18.5013 70.142 19.344C69.662 20.176 68.99 20.8267 68.126 21.296C67.2727 21.7653 66.2753 22 65.134 22H61.71L61.694 21.52C61.694 21.52 61.806 21.52 62.03 21.52C62.2647 21.52 62.5527 21.52 62.894 21.52C63.246 21.52 63.5927 21.52 63.934 21.52C64.2753 21.52 64.558 21.52 64.782 21.52C65.0167 21.52 65.134 21.52 65.134 21.52C66.0513 21.52 66.846 21.3067 67.518 20.88C68.2007 20.4533 68.7287 19.856 69.102 19.088C69.486 18.32 69.678 17.424 69.678 16.4C69.678 15.376 69.486 14.48 69.102 13.712C68.7287 12.944 68.2007 12.3467 67.518 11.92C66.8353 11.4933 66.0407 11.28 65.134 11.28C65.134 11.28 65.0113 11.28 64.766 11.28C64.5313 11.28 64.2327 11.28 63.87 11.28C63.518 11.28 63.1607 11.28 62.798 11.28C62.446 11.28 62.1473 11.28 61.902 11.28C61.6567 11.28 61.534 11.28 61.534 11.28V10.8H65.134ZM61.982 10.8V22H60.942V10.8H61.982ZM60.99 20.832V22H59.71V21.84C59.71 21.84 59.742 21.84 59.806 21.84C59.8807 21.84 59.918 21.84 59.918 21.84C60.1953 21.84 60.43 21.744 60.622 21.552C60.8247 21.3493 60.9313 21.1093 60.942 20.832H60.99ZM60.99 11.968H60.942C60.942 11.6907 60.8407 11.456 60.638 11.264C60.4353 11.0613 60.1953 10.96 59.918 10.96C59.918 10.96 59.886 10.96 59.822 10.96C59.758 10.96 59.726 10.96 59.726 10.96L59.71 10.8H60.99V11.968ZM74.3998 12.4V22H73.3758V12.4H74.3998ZM78.7038 21.504L78.6718 22H74.3678V21.504H78.7038ZM77.9518 16.96V17.44H74.3678V16.96H77.9518ZM78.6878 12.4V12.896H74.3678V12.4H78.6878ZM79.5998 19.712L78.7198 22H76.2878L76.8318 21.504C77.3651 21.504 77.7918 21.4293 78.1118 21.28C78.4424 21.12 78.7091 20.9067 78.9118 20.64C79.1144 20.3627 79.2904 20.0533 79.4398 19.712H79.5998ZM77.9518 17.408V18.32H77.7758V18.112C77.7758 17.9307 77.7224 17.776 77.6158 17.648C77.5091 17.5093 77.3438 17.44 77.1198 17.44V17.408H77.9518ZM77.9518 16.08V16.992H77.1198V16.96C77.3438 16.96 77.5091 16.896 77.6158 16.768C77.7224 16.6293 77.7758 16.4693 77.7758 16.288V16.08H77.9518ZM78.6878 12.848V13.952H78.5118V13.712C78.5118 13.488 78.4371 13.296 78.2878 13.136C78.1491 12.976 77.9571 12.896 77.7118 12.896V12.848H78.6878ZM78.6878 12.144V12.56L76.8638 12.4C77.1944 12.4 77.5464 12.3733 77.9198 12.32C78.2931 12.256 78.5491 12.1973 78.6878 12.144ZM73.4078 20.976L73.6158 22H72.2238V21.84C72.2238 21.84 72.2611 21.84 72.3358 21.84C72.4104 21.84 72.4478 21.84 72.4478 21.84C72.7144 21.84 72.9331 21.7547 73.1038 21.584C73.2744 21.4133 73.3651 21.2107 73.3758 20.976H73.4078ZM73.4078 13.408H73.3758C73.3651 13.1627 73.2744 12.96 73.1038 12.8C72.9331 12.64 72.7144 12.56 72.4478 12.56C72.4478 12.56 72.4104 12.56 72.3358 12.56C72.2611 12.56 72.2238 12.56 72.2238 12.56V12.4H73.6158L73.4078 13.408ZM75.9838 11.264C76.2078 11.0187 76.4318 10.7787 76.6558 10.544C76.8798 10.2987 77.1038 10.064 77.3278 9.84C77.5624 9.60533 77.7918 9.38133 78.0158 9.168C78.1331 9.296 78.2504 9.42933 78.3678 9.568C78.4851 9.70667 78.5864 9.856 78.6718 10.016C78.3838 10.176 78.0958 10.336 77.8078 10.496C77.5198 10.656 77.2318 10.8107 76.9438 10.96C76.6664 11.0987 76.3838 11.2373 76.0958 11.376L75.9838 11.264ZM90.7341 17.968L90.5581 20.16C90.2808 20.5867 89.9181 20.9547 89.4701 21.264C89.0221 21.5733 88.5155 21.8133 87.9501 21.984C87.3848 22.144 86.7875 22.224 86.1581 22.224C85.0808 22.2133 84.1421 22.0053 83.3421 21.6C82.5528 21.1947 81.9448 20.6187 81.5181 19.872C81.0915 19.1253 80.8781 18.2347 80.8781 17.2C80.8781 16.1547 81.0915 15.2587 81.5181 14.512C81.9448 13.7653 82.5528 13.1893 83.3421 12.784C84.1421 12.3787 85.0808 12.176 86.1581 12.176C86.8195 12.176 87.4861 12.2613 88.1581 12.432C88.8301 12.6027 89.4115 12.8427 89.9021 13.152L90.2541 15.408H90.1101C89.8755 14.4267 89.4008 13.7227 88.6861 13.296C87.9821 12.8693 87.1341 12.656 86.1421 12.656C85.2995 12.656 84.5688 12.8427 83.9501 13.216C83.3421 13.5787 82.8675 14.1013 82.5261 14.784C82.1955 15.456 82.0301 16.2613 82.0301 17.2C82.0301 18.1173 82.1955 18.9173 82.5261 19.6C82.8675 20.272 83.3475 20.7947 83.9661 21.168C84.5848 21.5307 85.3155 21.7173 86.1581 21.728C86.9581 21.728 87.6781 21.6 88.3181 21.344C88.9688 21.0773 89.4968 20.6667 89.9021 20.112C90.3075 19.5573 90.5368 18.8427 90.5901 17.968H90.7341ZM97.8639 12.176C98.6105 12.176 99.3092 12.2987 99.9599 12.544C100.621 12.7787 101.197 13.12 101.688 13.568C102.189 14.016 102.579 14.5493 102.856 15.168C103.133 15.776 103.272 16.4533 103.272 17.2C103.272 17.9467 103.133 18.6293 102.856 19.248C102.579 19.856 102.189 20.384 101.688 20.832C101.197 21.28 100.621 21.6267 99.9599 21.872C99.3092 22.1067 98.6105 22.224 97.8639 22.224C97.1172 22.224 96.4185 22.1067 95.7679 21.872C95.1172 21.6267 94.5412 21.28 94.0399 20.832C93.5492 20.384 93.1652 19.856 92.8879 19.248C92.6105 18.6293 92.4719 17.9467 92.4719 17.2C92.4719 16.4533 92.6105 15.776 92.8879 15.168C93.1652 14.5493 93.5492 14.016 94.0399 13.568C94.5412 13.12 95.1172 12.7787 95.7679 12.544C96.4185 12.2987 97.1172 12.176 97.8639 12.176ZM97.8639 21.744C98.6532 21.744 99.3679 21.552 100.008 21.168C100.648 20.784 101.155 20.2507 101.528 19.568C101.901 18.8853 102.088 18.096 102.088 17.2C102.088 16.2933 101.901 15.504 101.528 14.832C101.155 14.1493 100.648 13.616 100.008 13.232C99.3679 12.848 98.6532 12.656 97.8639 12.656C97.0852 12.656 96.3759 12.848 95.7359 13.232C95.0959 13.616 94.5892 14.1493 94.2159 14.832C93.8425 15.504 93.6559 16.2933 93.6559 17.2C93.6559 18.096 93.8425 18.8853 94.2159 19.568C94.5892 20.2507 95.0959 20.784 95.7359 21.168C96.3759 21.552 97.0852 21.744 97.8639 21.744ZM106.578 12.4V18.448C106.578 19.4827 106.84 20.2987 107.362 20.896C107.896 21.4933 108.621 21.792 109.538 21.792C110.552 21.792 111.346 21.5093 111.922 20.944C112.509 20.3787 112.802 19.6053 112.802 18.624V12.4H113.538V18.624C113.538 19.7333 113.181 20.6133 112.466 21.264C111.762 21.904 110.792 22.224 109.554 22.224C108.328 22.224 107.352 21.904 106.626 21.264C105.912 20.624 105.554 19.7493 105.554 18.64V12.4H106.578ZM105.586 12.4V13.248H105.554C105.544 13.056 105.464 12.896 105.314 12.768C105.176 12.6293 105 12.56 104.786 12.56C104.786 12.56 104.744 12.56 104.658 12.56C104.584 12.56 104.546 12.56 104.546 12.56V12.4H105.586ZM107.586 12.4V12.56C107.586 12.56 107.544 12.56 107.458 12.56C107.384 12.56 107.346 12.56 107.346 12.56C107.144 12.56 106.962 12.6293 106.802 12.768C106.653 12.896 106.578 13.056 106.578 13.248H106.546V12.4H107.586ZM112.834 12.4V13.248H112.802C112.802 13.056 112.728 12.896 112.578 12.768C112.429 12.6293 112.248 12.56 112.034 12.56C112.034 12.56 111.992 12.56 111.906 12.56C111.832 12.56 111.794 12.56 111.794 12.56V12.4H112.834ZM114.546 12.4V12.56C114.546 12.56 114.504 12.56 114.418 12.56C114.344 12.56 114.306 12.56 114.306 12.56C114.104 12.56 113.928 12.6293 113.778 12.768C113.629 12.896 113.549 13.056 113.538 13.248H113.506V12.4H114.546ZM120.341 22.224L115.941 12.496H117.205L120.613 20.8L120.341 22.224ZM120.341 22.224L120.229 21.12L123.893 12.448H124.901L121.109 20.576C121.109 20.576 121.077 20.64 121.013 20.768C120.96 20.896 120.891 21.056 120.805 21.248C120.731 21.4293 120.661 21.6107 120.597 21.792C120.533 21.9733 120.496 22.1173 120.485 22.224H120.341ZM123.429 13.568C123.547 13.248 123.531 13.0027 123.381 12.832C123.232 12.6507 123.061 12.56 122.869 12.56H122.757V12.4H125.797V12.56C125.797 12.56 125.776 12.56 125.733 12.56C125.691 12.56 125.669 12.56 125.669 12.56C125.445 12.56 125.216 12.64 124.981 12.8C124.747 12.9493 124.544 13.2053 124.373 13.568H123.429ZM117.637 13.568H116.421C116.261 13.2053 116.064 12.9493 115.829 12.8C115.595 12.64 115.371 12.56 115.157 12.56C115.157 12.56 115.136 12.56 115.093 12.56C115.051 12.56 115.029 12.56 115.029 12.56V12.4H118.309V12.56H118.181C118 12.56 117.835 12.6507 117.685 12.832C117.547 13.0027 117.531 13.248 117.637 13.568ZM128.551 12.4H130.615C131.116 12.4 131.564 12.4587 131.959 12.576C132.364 12.6933 132.705 12.864 132.983 13.088C133.271 13.312 133.489 13.584 133.639 13.904C133.788 14.224 133.863 14.5867 133.863 14.992C133.863 15.44 133.756 15.856 133.543 16.24C133.329 16.624 133.031 16.9387 132.647 17.184C132.273 17.4293 131.847 17.5787 131.367 17.632C131.548 17.7067 131.756 17.872 131.991 18.128C132.236 18.384 132.444 18.6347 132.615 18.88C132.615 18.88 132.684 18.976 132.823 19.168C132.961 19.3493 133.137 19.5787 133.351 19.856C133.575 20.1227 133.793 20.3787 134.007 20.624C134.231 20.8693 134.433 21.0827 134.615 21.264C134.807 21.4453 135.009 21.5893 135.223 21.696C135.447 21.792 135.703 21.84 135.991 21.84V22H135.495C134.908 22 134.423 21.9253 134.039 21.776C133.665 21.6267 133.361 21.4453 133.127 21.232C132.892 21.008 132.689 20.7947 132.519 20.592C132.476 20.5387 132.375 20.4053 132.215 20.192C132.065 19.968 131.9 19.728 131.719 19.472C131.537 19.216 131.372 18.9867 131.223 18.784C131.073 18.5707 130.983 18.4427 130.951 18.4C130.737 18.1227 130.492 17.8773 130.215 17.664C129.937 17.44 129.644 17.328 129.335 17.328V17.168C129.335 17.168 129.42 17.1733 129.591 17.184C129.761 17.184 129.98 17.1787 130.247 17.168C130.545 17.1573 130.844 17.136 131.143 17.104C131.441 17.0613 131.719 16.944 131.975 16.752C132.241 16.56 132.449 16.24 132.599 15.792C132.641 15.6747 132.673 15.536 132.695 15.376C132.716 15.216 132.721 15.0507 132.711 14.88C132.7 14.5813 132.641 14.3147 132.535 14.08C132.439 13.8453 132.295 13.6427 132.103 13.472C131.921 13.3013 131.703 13.168 131.447 13.072C131.191 12.976 130.903 12.9227 130.583 12.912C130.081 12.8907 129.644 12.8853 129.271 12.896C128.897 12.9067 128.711 12.9067 128.711 12.896C128.711 12.8853 128.695 12.8427 128.663 12.768C128.641 12.6827 128.615 12.6027 128.583 12.528C128.561 12.4427 128.551 12.4 128.551 12.4ZM128.743 12.4V22H127.719V12.4H128.743ZM127.767 20.976L127.959 22H126.599V21.84C126.599 21.84 126.636 21.84 126.711 21.84C126.785 21.84 126.823 21.84 126.823 21.84C127.079 21.84 127.292 21.7547 127.463 21.584C127.633 21.4133 127.724 21.2107 127.735 20.976H127.767ZM127.767 13.408H127.735C127.724 13.1627 127.633 12.96 127.463 12.8C127.292 12.64 127.079 12.56 126.823 12.56C126.823 12.56 126.785 12.56 126.711 12.56C126.636 12.56 126.599 12.56 126.599 12.56V12.4H127.959L127.767 13.408ZM128.695 20.976H128.743C128.753 21.2107 128.844 21.4133 129.015 21.584C129.185 21.7547 129.399 21.84 129.655 21.84C129.655 21.84 129.687 21.84 129.751 21.84C129.825 21.84 129.863 21.84 129.863 21.84L129.879 22H128.503L128.695 20.976ZM138.95 12.4V22H137.942V12.4H138.95ZM137.99 20.976V22H136.63V21.84C136.63 21.84 136.667 21.84 136.742 21.84C136.817 21.84 136.854 21.84 136.854 21.84C137.153 21.84 137.403 21.7547 137.606 21.584C137.819 21.4133 137.931 21.2107 137.942 20.976H137.99ZM138.902 20.976H138.95C138.961 21.2107 139.067 21.4133 139.27 21.584C139.483 21.7547 139.739 21.84 140.038 21.84C140.038 21.84 140.07 21.84 140.134 21.84C140.209 21.84 140.246 21.84 140.246 21.84L140.262 22H138.902V20.976ZM138.902 13.424V12.4H140.262L140.246 12.56C140.246 12.56 140.209 12.56 140.134 12.56C140.07 12.56 140.038 12.56 140.038 12.56C139.739 12.56 139.483 12.6453 139.27 12.816C139.067 12.976 138.961 13.1787 138.95 13.424H138.902ZM137.99 13.424H137.942C137.931 13.1787 137.819 12.976 137.606 12.816C137.403 12.6453 137.153 12.56 136.854 12.56C136.843 12.56 136.801 12.56 136.726 12.56C136.662 12.56 136.63 12.56 136.63 12.56V12.4H137.99V13.424ZM143.957 12.4H146.021C146.522 12.4 146.97 12.4587 147.365 12.576C147.77 12.6933 148.112 12.864 148.389 13.088C148.677 13.312 148.896 13.584 149.045 13.904C149.194 14.224 149.269 14.5867 149.269 14.992C149.269 15.44 149.162 15.856 148.949 16.24C148.736 16.624 148.437 16.9387 148.053 17.184C147.68 17.4293 147.253 17.5787 146.773 17.632C146.954 17.7067 147.162 17.872 147.397 18.128C147.642 18.384 147.85 18.6347 148.021 18.88C148.021 18.88 148.09 18.976 148.229 19.168C148.368 19.3493 148.544 19.5787 148.757 19.856C148.981 20.1227 149.2 20.3787 149.413 20.624C149.637 20.8693 149.84 21.0827 150.021 21.264C150.213 21.4453 150.416 21.5893 150.629 21.696C150.853 21.792 151.109 21.84 151.397 21.84V22H150.901C150.314 22 149.829 21.9253 149.445 21.776C149.072 21.6267 148.768 21.4453 148.533 21.232C148.298 21.008 148.096 20.7947 147.925 20.592C147.882 20.5387 147.781 20.4053 147.621 20.192C147.472 19.968 147.306 19.728 147.125 19.472C146.944 19.216 146.778 18.9867 146.629 18.784C146.48 18.5707 146.389 18.4427 146.357 18.4C146.144 18.1227 145.898 17.8773 145.621 17.664C145.344 17.44 145.05 17.328 144.741 17.328V17.168C144.741 17.168 144.826 17.1733 144.997 17.184C145.168 17.184 145.386 17.1787 145.653 17.168C145.952 17.1573 146.25 17.136 146.549 17.104C146.848 17.0613 147.125 16.944 147.381 16.752C147.648 16.56 147.856 16.24 148.005 15.792C148.048 15.6747 148.08 15.536 148.101 15.376C148.122 15.216 148.128 15.0507 148.117 14.88C148.106 14.5813 148.048 14.3147 147.941 14.08C147.845 13.8453 147.701 13.6427 147.509 13.472C147.328 13.3013 147.109 13.168 146.853 13.072C146.597 12.976 146.309 12.9227 145.989 12.912C145.488 12.8907 145.05 12.8853 144.677 12.896C144.304 12.9067 144.117 12.9067 144.117 12.896C144.117 12.8853 144.101 12.8427 144.069 12.768C144.048 12.6827 144.021 12.6027 143.989 12.528C143.968 12.4427 143.957 12.4 143.957 12.4ZM144.149 12.4V22H143.125V12.4H144.149ZM143.173 20.976L143.365 22H142.005V21.84C142.005 21.84 142.042 21.84 142.117 21.84C142.192 21.84 142.229 21.84 142.229 21.84C142.485 21.84 142.698 21.7547 142.869 21.584C143.04 21.4133 143.13 21.2107 143.141 20.976H143.173ZM143.173 13.408H143.141C143.13 13.1627 143.04 12.96 142.869 12.8C142.698 12.64 142.485 12.56 142.229 12.56C142.229 12.56 142.192 12.56 142.117 12.56C142.042 12.56 142.005 12.56 142.005 12.56V12.4H143.365L143.173 13.408ZM144.101 20.976H144.149C144.16 21.2107 144.25 21.4133 144.421 21.584C144.592 21.7547 144.805 21.84 145.061 21.84C145.061 21.84 145.093 21.84 145.157 21.84C145.232 21.84 145.269 21.84 145.269 21.84L145.285 22H143.909L144.101 20.976ZM158.212 12.4V22H157.188V12.4H158.212ZM162.516 21.504L162.484 22H158.18V21.504H162.516ZM163.412 19.712L162.532 22H160.1L160.644 21.504C161.178 21.504 161.604 21.4293 161.924 21.28C162.255 21.12 162.522 20.9067 162.724 20.64C162.927 20.3627 163.103 20.0533 163.252 19.712H163.412ZM157.22 20.976L157.428 22H156.036V21.84C156.036 21.84 156.074 21.84 156.148 21.84C156.223 21.84 156.26 21.84 156.26 21.84C156.527 21.84 156.746 21.7547 156.916 21.584C157.087 21.4133 157.178 21.2107 157.188 20.976H157.22ZM158.164 13.424V12.4H159.348V12.56C159.348 12.56 159.316 12.56 159.252 12.56C159.188 12.56 159.156 12.56 159.156 12.56C158.9 12.56 158.676 12.6453 158.484 12.816C158.303 12.976 158.212 13.1787 158.212 13.424H158.164ZM157.22 13.424H157.188C157.178 13.1787 157.082 12.976 156.9 12.816C156.719 12.6453 156.495 12.56 156.228 12.56C156.228 12.56 156.196 12.56 156.132 12.56C156.068 12.56 156.036 12.56 156.036 12.56V12.4H157.22V13.424ZM166.4 12.4V22H165.376V12.4H166.4ZM170.704 21.504L170.672 22H166.368V21.504H170.704ZM169.952 16.96V17.44H166.368V16.96H169.952ZM170.688 12.4V12.896H166.368V12.4H170.688ZM171.6 19.712L170.72 22H168.288L168.832 21.504C169.365 21.504 169.792 21.4293 170.112 21.28C170.442 21.12 170.709 20.9067 170.912 20.64C171.114 20.3627 171.29 20.0533 171.44 19.712H171.6ZM169.952 17.408V18.32H169.776V18.112C169.776 17.9307 169.722 17.776 169.616 17.648C169.509 17.5093 169.344 17.44 169.12 17.44V17.408H169.952ZM169.952 16.08V16.992H169.12V16.96C169.344 16.96 169.509 16.896 169.616 16.768C169.722 16.6293 169.776 16.4693 169.776 16.288V16.08H169.952ZM170.688 12.848V13.952H170.512V13.712C170.512 13.488 170.437 13.296 170.288 13.136C170.149 12.976 169.957 12.896 169.712 12.896V12.848H170.688ZM170.688 12.144V12.56L168.864 12.4C169.194 12.4 169.546 12.3733 169.92 12.32C170.293 12.256 170.549 12.1973 170.688 12.144ZM165.408 20.976L165.616 22H164.224V21.84C164.224 21.84 164.261 21.84 164.336 21.84C164.41 21.84 164.448 21.84 164.448 21.84C164.714 21.84 164.933 21.7547 165.104 21.584C165.274 21.4133 165.365 21.2107 165.376 20.976H165.408ZM165.408 13.408H165.376C165.365 13.1627 165.274 12.96 165.104 12.8C164.933 12.64 164.714 12.56 164.448 12.56C164.448 12.56 164.41 12.56 164.336 12.56C164.261 12.56 164.224 12.56 164.224 12.56V12.4H165.616L165.408 13.408ZM178.318 12.4H180.222C180.51 12.4 180.841 12.4267 181.214 12.48C181.598 12.5333 181.966 12.64 182.318 12.8C182.67 12.96 182.963 13.2 183.198 13.52C183.433 13.84 183.55 14.2667 183.55 14.8C183.55 15.12 183.465 15.4187 183.294 15.696C183.123 15.9733 182.905 16.208 182.638 16.4C182.371 16.5813 182.089 16.7093 181.79 16.784C182.313 16.8373 182.771 16.9867 183.166 17.232C183.571 17.4667 183.891 17.7653 184.126 18.128C184.361 18.4907 184.478 18.8853 184.478 19.312C184.478 19.8347 184.366 20.272 184.142 20.624C183.929 20.9653 183.646 21.2373 183.294 21.44C182.942 21.6427 182.558 21.7867 182.142 21.872C181.726 21.9573 181.321 22 180.926 22H178.974C178.974 22 178.974 21.9627 178.974 21.888C178.985 21.8027 178.99 21.7227 178.99 21.648C178.99 21.5627 178.99 21.52 178.99 21.52H180.91C181.369 21.52 181.779 21.4453 182.142 21.296C182.515 21.136 182.809 20.8907 183.022 20.56C183.235 20.2293 183.342 19.8133 183.342 19.312C183.342 18.8 183.23 18.3893 183.006 18.08C182.782 17.76 182.489 17.52 182.126 17.36C181.763 17.1893 181.363 17.0773 180.926 17.024C180.489 16.96 180.051 16.928 179.614 16.928V16.768C179.902 16.768 180.211 16.7467 180.542 16.704C180.873 16.6613 181.177 16.576 181.454 16.448C181.742 16.3093 181.977 16.112 182.158 15.856C182.339 15.5893 182.43 15.2373 182.43 14.8C182.43 14.128 182.233 13.6427 181.838 13.344C181.443 13.0347 180.899 12.88 180.206 12.88H178.462C178.462 12.8693 178.446 12.8267 178.414 12.752C178.393 12.6667 178.371 12.5867 178.35 12.512C178.329 12.4373 178.318 12.4 178.318 12.4ZM179.118 12.4V22H178.11V12.4H179.118ZM178.158 20.976V22H176.958V21.84C176.958 21.84 176.99 21.84 177.054 21.84C177.118 21.84 177.15 21.84 177.15 21.84C177.427 21.84 177.651 21.7547 177.822 21.584C178.003 21.4133 178.099 21.2107 178.11 20.976H178.158ZM178.158 13.424H178.11C178.099 13.168 178.003 12.96 177.822 12.8C177.651 12.64 177.427 12.56 177.15 12.56C177.15 12.56 177.118 12.56 177.054 12.56C176.99 12.56 176.958 12.56 176.958 12.56V12.4H178.158V13.424ZM188.259 12.4V22H187.235V12.4H188.259ZM192.563 21.504L192.531 22H188.227V21.504H192.563ZM191.811 16.96V17.44H188.227V16.96H191.811ZM192.547 12.4V12.896H188.227V12.4H192.547ZM193.459 19.712L192.579 22H190.147L190.691 21.504C191.224 21.504 191.651 21.4293 191.971 21.28C192.302 21.12 192.568 20.9067 192.771 20.64C192.974 20.3627 193.15 20.0533 193.299 19.712H193.459ZM191.811 17.408V18.32H191.635V18.112C191.635 17.9307 191.582 17.776 191.475 17.648C191.368 17.5093 191.203 17.44 190.979 17.44V17.408H191.811ZM191.811 16.08V16.992H190.979V16.96C191.203 16.96 191.368 16.896 191.475 16.768C191.582 16.6293 191.635 16.4693 191.635 16.288V16.08H191.811ZM192.547 12.848V13.952H192.371V13.712C192.371 13.488 192.296 13.296 192.147 13.136C192.008 12.976 191.816 12.896 191.571 12.896V12.848H192.547ZM192.547 12.144V12.56L190.723 12.4C191.054 12.4 191.406 12.3733 191.779 12.32C192.152 12.256 192.408 12.1973 192.547 12.144ZM187.267 20.976L187.475 22H186.083V21.84C186.083 21.84 186.12 21.84 186.195 21.84C186.27 21.84 186.307 21.84 186.307 21.84C186.574 21.84 186.792 21.7547 186.963 21.584C187.134 21.4133 187.224 21.2107 187.235 20.976H187.267ZM187.267 13.408H187.235C187.224 13.1627 187.134 12.96 186.963 12.8C186.792 12.64 186.574 12.56 186.307 12.56C186.307 12.56 186.27 12.56 186.195 12.56C186.12 12.56 186.083 12.56 186.083 12.56V12.4H187.475L187.267 13.408ZM197.682 12.176C197.98 12.176 198.242 12.1867 198.466 12.208C198.69 12.2293 198.882 12.256 199.042 12.288C199.212 12.3093 199.356 12.3413 199.474 12.384C199.602 12.416 199.714 12.448 199.81 12.48L199.826 14.064H199.634C199.634 13.6267 199.484 13.2853 199.186 13.04C198.887 12.784 198.423 12.656 197.794 12.656C197.26 12.656 196.802 12.8053 196.418 13.104C196.044 13.392 195.863 13.7493 195.874 14.176C195.874 14.3147 195.89 14.4587 195.922 14.608C195.964 14.7467 196.028 14.8853 196.114 15.024C196.21 15.1627 196.338 15.3013 196.498 15.44L199.73 17.936C199.975 18.1387 200.156 18.4 200.274 18.72C200.391 19.0293 200.455 19.3387 200.466 19.648C200.476 20.1173 200.354 20.5493 200.098 20.944C199.842 21.3387 199.495 21.6533 199.058 21.888C198.631 22.112 198.156 22.224 197.634 22.224C197.324 22.224 196.988 22.1973 196.626 22.144C196.274 22.0907 195.943 22.0107 195.634 21.904C195.324 21.7867 195.068 21.6427 194.866 21.472C194.834 21.3227 194.818 21.136 194.818 20.912C194.818 20.6773 194.834 20.432 194.866 20.176C194.908 19.92 194.962 19.6907 195.026 19.488H195.218C195.175 19.968 195.244 20.3787 195.426 20.72C195.607 21.0613 195.874 21.3227 196.226 21.504C196.578 21.6747 196.988 21.7547 197.458 21.744C198.119 21.7227 198.636 21.5573 199.01 21.248C199.394 20.928 199.586 20.5067 199.586 19.984C199.586 19.728 199.538 19.4987 199.442 19.296C199.356 19.0827 199.212 18.8853 199.01 18.704L195.81 16.24C195.511 15.984 195.308 15.7013 195.202 15.392C195.095 15.0827 195.042 14.7893 195.042 14.512C195.042 14.0747 195.159 13.68 195.394 13.328C195.628 12.976 195.943 12.6987 196.338 12.496C196.743 12.2827 197.191 12.176 197.682 12.176ZM199.794 12.32L199.81 12.608H198.674V12.32H199.794ZM206.48 12.448V22H205.44V12.448H206.48ZM210.352 12.384V12.864H201.568V12.384H210.352ZM210.352 12.832V13.936H210.176V13.68C210.176 13.456 210.101 13.2693 209.952 13.12C209.813 12.96 209.621 12.8747 209.376 12.864V12.832H210.352ZM210.352 12.128V12.544L208.56 12.384C208.773 12.384 208.997 12.3733 209.232 12.352C209.477 12.32 209.701 12.2827 209.904 12.24C210.107 12.1973 210.256 12.16 210.352 12.128ZM205.472 20.976V22H204.304V21.84C204.315 21.84 204.347 21.84 204.4 21.84C204.464 21.84 204.496 21.84 204.496 21.84C204.752 21.84 204.971 21.7547 205.152 21.584C205.333 21.4133 205.429 21.2107 205.44 20.976H205.472ZM206.432 20.976H206.48C206.491 21.2107 206.587 21.4133 206.768 21.584C206.949 21.7547 207.168 21.84 207.424 21.84C207.424 21.84 207.451 21.84 207.504 21.84C207.568 21.84 207.6 21.84 207.6 21.84V22H206.432V20.976ZM202.544 12.832V12.864C202.299 12.8747 202.101 12.96 201.952 13.12C201.813 13.2693 201.744 13.456 201.744 13.68V13.936H201.568V12.832H202.544ZM201.568 12.128C201.664 12.16 201.808 12.1973 202 12.24C202.203 12.2827 202.427 12.32 202.672 12.352C202.917 12.3733 203.147 12.384 203.36 12.384L201.568 12.544V12.128ZM213.778 12.4V22H212.77V12.4H213.778ZM212.818 20.976V22H211.458V21.84C211.458 21.84 211.495 21.84 211.57 21.84C211.645 21.84 211.682 21.84 211.682 21.84C211.981 21.84 212.231 21.7547 212.434 21.584C212.647 21.4133 212.759 21.2107 212.77 20.976H212.818ZM213.73 20.976H213.778C213.789 21.2107 213.895 21.4133 214.098 21.584C214.311 21.7547 214.567 21.84 214.866 21.84C214.866 21.84 214.898 21.84 214.962 21.84C215.037 21.84 215.074 21.84 215.074 21.84L215.09 22H213.73V20.976ZM213.73 13.424V12.4H215.09L215.074 12.56C215.074 12.56 215.037 12.56 214.962 12.56C214.898 12.56 214.866 12.56 214.866 12.56C214.567 12.56 214.311 12.6453 214.098 12.816C213.895 12.976 213.789 13.1787 213.778 13.424H213.73ZM212.818 13.424H212.77C212.759 13.1787 212.647 12.976 212.434 12.816C212.231 12.6453 211.981 12.56 211.682 12.56C211.671 12.56 211.629 12.56 211.554 12.56C211.49 12.56 211.458 12.56 211.458 12.56V12.4H212.818V13.424ZM221.329 12.176L225.729 21.904H224.465L221.057 13.6L221.329 12.176ZM218.241 20.832C218.124 21.152 218.14 21.4027 218.289 21.584C218.438 21.7547 218.609 21.84 218.801 21.84H218.929V22H215.873V21.84C215.873 21.84 215.894 21.84 215.937 21.84C215.98 21.84 216.001 21.84 216.001 21.84C216.225 21.84 216.454 21.7653 216.689 21.616C216.924 21.456 217.126 21.1947 217.297 20.832H218.241ZM221.329 12.176L221.441 13.28L217.777 21.952H216.769L220.561 13.824C220.561 13.824 220.588 13.76 220.641 13.632C220.705 13.504 220.774 13.3493 220.849 13.168C220.934 12.976 221.009 12.7893 221.073 12.608C221.137 12.4267 221.174 12.2827 221.185 12.176H221.329ZM223.217 18.272V18.752H218.977V18.272H223.217ZM224.033 20.832H225.249C225.409 21.1947 225.606 21.456 225.841 21.616C226.076 21.7653 226.3 21.84 226.513 21.84C226.513 21.84 226.534 21.84 226.577 21.84C226.62 21.84 226.641 21.84 226.641 21.84V22H223.361V21.84H223.489C223.67 21.84 223.836 21.7547 223.985 21.584C224.134 21.4027 224.15 21.152 224.033 20.832ZM229.763 12.4V22H228.755V12.4H229.763ZM228.803 20.976V22H227.443V21.84C227.443 21.84 227.48 21.84 227.555 21.84C227.629 21.84 227.667 21.84 227.667 21.84C227.965 21.84 228.216 21.7547 228.419 21.584C228.632 21.4133 228.744 21.2107 228.755 20.976H228.803ZM229.715 20.976H229.763C229.773 21.2107 229.88 21.4133 230.083 21.584C230.296 21.7547 230.552 21.84 230.851 21.84C230.851 21.84 230.883 21.84 230.947 21.84C231.021 21.84 231.059 21.84 231.059 21.84L231.075 22H229.715V20.976ZM229.715 13.424V12.4H231.075L231.059 12.56C231.059 12.56 231.021 12.56 230.947 12.56C230.883 12.56 230.851 12.56 230.851 12.56C230.552 12.56 230.296 12.6453 230.083 12.816C229.88 12.976 229.773 13.1787 229.763 13.424H229.715ZM228.803 13.424H228.755C228.744 13.1787 228.632 12.976 228.419 12.816C228.216 12.6453 227.965 12.56 227.667 12.56C227.656 12.56 227.613 12.56 227.539 12.56C227.475 12.56 227.443 12.56 227.443 12.56V12.4H228.803V13.424ZM234.77 12.4H236.834C237.335 12.4 237.783 12.4587 238.178 12.576C238.583 12.6933 238.924 12.864 239.202 13.088C239.49 13.312 239.708 13.584 239.858 13.904C240.007 14.224 240.082 14.5867 240.082 14.992C240.082 15.44 239.975 15.856 239.762 16.24C239.548 16.624 239.25 16.9387 238.866 17.184C238.492 17.4293 238.066 17.5787 237.586 17.632C237.767 17.7067 237.975 17.872 238.21 18.128C238.455 18.384 238.663 18.6347 238.834 18.88C238.834 18.88 238.903 18.976 239.042 19.168C239.18 19.3493 239.356 19.5787 239.57 19.856C239.794 20.1227 240.012 20.3787 240.226 20.624C240.45 20.8693 240.652 21.0827 240.834 21.264C241.026 21.4453 241.228 21.5893 241.442 21.696C241.666 21.792 241.922 21.84 242.21 21.84V22H241.714C241.127 22 240.642 21.9253 240.258 21.776C239.884 21.6267 239.58 21.4453 239.346 21.232C239.111 21.008 238.908 20.7947 238.738 20.592C238.695 20.5387 238.594 20.4053 238.434 20.192C238.284 19.968 238.119 19.728 237.938 19.472C237.756 19.216 237.591 18.9867 237.442 18.784C237.292 18.5707 237.202 18.4427 237.17 18.4C236.956 18.1227 236.711 17.8773 236.434 17.664C236.156 17.44 235.863 17.328 235.554 17.328V17.168C235.554 17.168 235.639 17.1733 235.81 17.184C235.98 17.184 236.199 17.1787 236.466 17.168C236.764 17.1573 237.063 17.136 237.362 17.104C237.66 17.0613 237.938 16.944 238.194 16.752C238.46 16.56 238.668 16.24 238.818 15.792C238.86 15.6747 238.892 15.536 238.914 15.376C238.935 15.216 238.94 15.0507 238.93 14.88C238.919 14.5813 238.86 14.3147 238.754 14.08C238.658 13.8453 238.514 13.6427 238.322 13.472C238.14 13.3013 237.922 13.168 237.666 13.072C237.41 12.976 237.122 12.9227 236.802 12.912C236.3 12.8907 235.863 12.8853 235.49 12.896C235.116 12.9067 234.93 12.9067 234.93 12.896C234.93 12.8853 234.914 12.8427 234.882 12.768C234.86 12.6827 234.834 12.6027 234.802 12.528C234.78 12.4427 234.77 12.4 234.77 12.4ZM234.962 12.4V22H233.938V12.4H234.962ZM233.986 20.976L234.178 22H232.818V21.84C232.818 21.84 232.855 21.84 232.93 21.84C233.004 21.84 233.042 21.84 233.042 21.84C233.298 21.84 233.511 21.7547 233.682 21.584C233.852 21.4133 233.943 21.2107 233.954 20.976H233.986ZM233.986 13.408H233.954C233.943 13.1627 233.852 12.96 233.682 12.8C233.511 12.64 233.298 12.56 233.042 12.56C233.042 12.56 233.004 12.56 232.93 12.56C232.855 12.56 232.818 12.56 232.818 12.56V12.4H234.178L233.986 13.408ZM234.914 20.976H234.962C234.972 21.2107 235.063 21.4133 235.234 21.584C235.404 21.7547 235.618 21.84 235.874 21.84C235.874 21.84 235.906 21.84 235.97 21.84C236.044 21.84 236.082 21.84 236.082 21.84L236.098 22H234.722L234.914 20.976ZM245.025 12.4V22H244.001V12.4H245.025ZM249.329 21.504L249.297 22H244.993V21.504H249.329ZM248.577 16.96V17.44H244.993V16.96H248.577ZM249.313 12.4V12.896H244.993V12.4H249.313ZM250.225 19.712L249.345 22H246.913L247.457 21.504C247.99 21.504 248.417 21.4293 248.737 21.28C249.067 21.12 249.334 20.9067 249.537 20.64C249.739 20.3627 249.915 20.0533 250.065 19.712H250.225ZM248.577 17.408V18.32H248.401V18.112C248.401 17.9307 248.347 17.776 248.241 17.648C248.134 17.5093 247.969 17.44 247.745 17.44V17.408H248.577ZM248.577 16.08V16.992H247.745V16.96C247.969 16.96 248.134 16.896 248.241 16.768C248.347 16.6293 248.401 16.4693 248.401 16.288V16.08H248.577ZM249.313 12.848V13.952H249.137V13.712C249.137 13.488 249.062 13.296 248.913 13.136C248.774 12.976 248.582 12.896 248.337 12.896V12.848H249.313ZM249.313 12.144V12.56L247.489 12.4C247.819 12.4 248.171 12.3733 248.545 12.32C248.918 12.256 249.174 12.1973 249.313 12.144ZM244.033 20.976L244.241 22H242.849V21.84C242.849 21.84 242.886 21.84 242.961 21.84C243.035 21.84 243.073 21.84 243.073 21.84C243.339 21.84 243.558 21.7547 243.729 21.584C243.899 21.4133 243.99 21.2107 244.001 20.976H244.033ZM244.033 13.408H244.001C243.99 13.1627 243.899 12.96 243.729 12.8C243.558 12.64 243.339 12.56 243.073 12.56C243.073 12.56 243.035 12.56 242.961 12.56C242.886 12.56 242.849 12.56 242.849 12.56V12.4H244.241L244.033 13.408Z" fill="#FFEABC"/>
</svg>
