<svg width="66" height="66" viewBox="0 0 66 66" fill="none" xmlns="http://www.w3.org/2000/svg">
<g clip-path="url(#clip0_5_9)">
<path d="M30.855 41.2C30.9875 41.485 31.5725 42.845 31.7625 43.3125C32.61 45.395 32.975 46.975 32.975 48.5675C32.975 48.865 32.9825 48.9275 33.0175 48.9625C33.115 49.06 33.38 48.925 33.4225 48.755C33.435 48.705 33.4875 48.2675 33.5375 47.7875C33.7725 45.5125 33.935 44.475 34.2025 43.55C34.4375 42.74 34.6975 42.1475 35.055 41.6125L35.2325 41.3475L35.1825 41.28C35.1575 41.245 35.095 41.185 35.0475 41.1475C34.88 41.0125 34.89 41.0075 34.3125 41.4525C34.0225 41.6725 33.7675 41.865 33.745 41.8775C33.6475 41.93 33.66 42.29 33.575 36.55C33.56 35.6225 33.5375 34.125 33.525 33.225C33.5125 32.325 33.49 30.7725 33.475 29.775C33.46 28.7775 33.4375 27.3725 33.4275 26.65L33.405 25.3375L33.5225 25.15C33.5875 25.0475 33.875 24.6075 34.16 24.1725L34.6775 23.38L34.7 21.81C34.715 20.945 34.7275 19.5625 34.73 18.7375C34.7375 17.3125 34.735 17.2325 34.69 17.1425C34.6 16.96 34.455 16.9575 34.255 17.1375C34.1075 17.2725 34.065 17.35 33.65 18.2625C33.47 18.66 33.3175 18.9925 33.3125 18.995C33.3075 19 33.235 18.98 33.1525 18.95C32.945 18.8725 32.685 18.8875 32.5125 18.985C32.445 19.02 32.39 19.0475 32.3875 19.045C32.385 19.04 32.1275 18.6575 31.8175 18.195C31.465 17.675 31.23 17.3475 31.1975 17.3375C31.055 17.2925 30.825 17.4325 30.785 17.5875C30.77 17.65 31.1825 23.74 31.2125 23.89C31.22 23.9175 31.5325 24.26 31.9075 24.6525L32.5925 25.36L32.61 27.1875C32.63 29.29 32.66 31.3775 32.7125 34.1125C32.7725 37.25 32.7775 37.585 32.8 39.9625C32.815 41.56 32.815 42.245 32.795 42.2675C32.755 42.315 32.65 42.3075 32.5525 42.2475C32.48 42.205 31.245 41.335 30.8925 41.0825C30.8275 41.035 30.775 41.005 30.7775 41.0175C30.7775 41.0275 30.8125 41.11 30.855 41.2ZM31.24 18.935C31.26 18.9575 31.295 18.975 31.3125 18.975C31.3325 18.975 31.3775 19.015 31.415 19.0625C31.4925 19.165 31.575 19.18 31.575 19.09C31.575 19.04 31.585 19.0325 31.63 19.0425C31.7175 19.065 31.7525 19.1025 31.805 19.225C31.8325 19.2875 31.88 19.365 31.9125 19.4C31.945 19.435 31.9875 19.5225 32.01 19.5975C32.0325 19.6725 32.0725 19.76 32.1025 19.79C32.1825 19.875 32.2775 20.3 32.26 20.5C32.2475 20.65 32.25 20.67 32.32 20.775C32.4325 20.9475 32.435 20.975 32.3375 21.08C32.245 21.18 32.1975 21.1925 32.085 21.15C31.975 21.1075 31.96 21.1525 32.03 21.305C32.3625 21.9975 32.3325 21.905 32.3475 22.255C32.36 22.535 32.37 22.5775 32.4175 22.63C32.4475 22.6625 32.4875 22.7275 32.5075 22.775C32.555 22.89 32.5875 23.19 32.555 23.21C32.52 23.23 32.0975 22.77 31.945 22.545C31.77 22.2875 31.69 22.1025 31.6175 21.785C31.5825 21.6325 31.505 21.395 31.4475 21.26C31.3475 21.0225 31.345 21.01 31.375 20.9125C31.395 20.8575 31.41 20.725 31.4075 20.6175C31.4075 20.5125 31.4125 20.425 31.4225 20.425C31.43 20.425 31.4775 20.495 31.525 20.5775C31.6625 20.8175 31.745 20.83 31.7675 20.6175C31.7775 20.5375 31.755 20.4 31.69 20.145C31.57 19.665 31.5175 19.52 31.415 19.38C31.2825 19.1975 31.1375 18.835 31.24 18.935ZM31.4375 22.17C31.5125 22.1825 31.56 22.245 31.625 22.41C31.665 22.5125 31.71 22.575 31.775 22.6225C31.9175 22.725 32.0925 22.935 32.1875 23.12C32.235 23.2125 32.2875 23.305 32.305 23.3275C32.3275 23.3625 32.3225 23.385 32.265 23.45C32.2025 23.525 32.2 23.535 32.2375 23.59C32.285 23.665 32.285 23.7225 32.235 23.8225C32.195 23.9025 32.195 23.9075 32.345 24.245C32.4275 24.4325 32.5075 24.6325 32.5225 24.6875C32.5575 24.82 32.5575 24.9575 32.52 24.995C32.4625 25.0525 32.405 25.025 32.2825 24.8825C32.2175 24.805 32.075 24.6525 31.97 24.5475C31.865 24.44 31.75 24.2975 31.715 24.23C31.68 24.1625 31.6225 24.0725 31.585 24.0275C31.5025 23.9275 31.48 23.77 31.5325 23.6425C31.58 23.53 31.66 23.5175 31.705 23.6125C31.72 23.6475 31.7425 23.675 31.7525 23.675C31.7925 23.675 31.79 23.6075 31.745 23.5175C31.72 23.465 31.6425 23.2675 31.575 23.0775C31.505 22.885 31.4325 22.6925 31.4125 22.6475C31.3875 22.59 31.3775 22.495 31.3825 22.3625C31.3875 22.1775 31.3925 22.1625 31.4375 22.17ZM32.7875 21.675C32.835 21.6025 32.8925 21.485 32.915 21.41C32.935 21.335 32.9575 21.275 32.965 21.275C32.97 21.275 32.975 21.8625 32.9725 22.58C32.97 23.365 32.96 23.845 32.9475 23.78C32.925 23.6575 32.845 23.535 32.775 23.5125C32.72 23.495 32.7175 23.4275 32.705 22.3225L32.7 21.805L32.7875 21.675ZM32.805 19.73C32.8725 19.735 32.92 19.7525 32.93 19.775C32.94 19.795 32.9475 19.9325 32.9475 20.08L32.95 20.35L32.865 20.35C32.7 20.35 32.7 20.35 32.7 20.0225L32.7 19.725L32.805 19.73ZM33.355 19.8675C33.3825 19.83 33.415 19.7575 33.43 19.705C33.445 19.655 33.485 19.5775 33.5225 19.5325C33.5575 19.49 33.6075 19.425 33.63 19.3925C33.66 19.3475 33.69 19.3325 33.725 19.3425C33.7975 19.3625 33.7875 19.45 33.6975 19.5725C33.6175 19.685 33.6125 19.7875 33.69 19.8525C33.7175 19.875 33.72 19.89 33.6975 19.915C33.6825 19.935 33.655 19.95 33.6375 19.95C33.62 19.95 33.565 20 33.5125 20.065C33.4125 20.1875 33.3575 20.1975 33.31 20.105C33.275 20.035 33.29 19.9625 33.355 19.8675ZM33.38 21.055L33.3875 20.6225L33.5 20.5175C33.5625 20.4575 33.645 20.3675 33.6825 20.3175C33.765 20.2075 33.85 20.1975 33.9375 20.285C34.07 20.4175 34.0375 20.6375 33.8225 21.0475C33.615 21.44 33.685 21.5375 33.9825 21.275C34.0475 21.2175 34.11 21.175 34.1175 21.185C34.125 21.1925 34.12 21.2125 34.1075 21.23C34.0575 21.29 34.0575 21.3625 34.105 21.485C34.1375 21.565 34.1475 21.635 34.135 21.685C34.0975 21.86 33.785 22.3975 33.6725 22.475C33.6325 22.505 33.575 22.575 33.545 22.6325L33.4925 22.7375L33.44 22.625C33.3725 22.4725 33.3625 22.3575 33.3675 21.8875C33.3725 21.6675 33.3775 21.2925 33.38 21.055ZM33.4775 24.0875C33.5175 24.06 33.5775 23.995 33.605 23.9425C33.6475 23.8725 33.6825 23.8425 33.76 23.8225C33.815 23.8075 33.8875 23.775 33.92 23.7475C33.995 23.69 34.02 23.6875 34.08 23.7425C34.1725 23.8275 34.1175 23.98 33.845 24.37C33.7575 24.495 33.6575 24.6475 33.62 24.71C33.54 24.845 33.4675 24.8625 33.43 24.755C33.415 24.7175 33.4025 24.5625 33.4025 24.4125L33.4 24.1375L33.4775 24.0875ZM33.4325 23.25C33.4525 23.215 33.4975 23.1275 33.5375 23.0525C33.5775 22.98 33.64 22.9 33.6775 22.8775C33.7175 22.8525 33.795 22.7825 33.85 22.7175C33.9075 22.6525 33.965 22.6 33.98 22.6C34.0225 22.6 33.985 22.95 33.925 23.1075C33.8975 23.1825 33.8075 23.34 33.725 23.46C33.6425 23.5775 33.575 23.69 33.575 23.71C33.575 23.8 33.4325 23.77 33.4175 23.6775C33.395 23.5275 33.4025 23.3075 33.4325 23.25Z" fill="#FFEABC"/>
</g>
<path d="M33.4637 1C34.4745 11.6667 42.1969 33 65 33C54.4879 35.2564 33.4637 44.8154 33.4637 65" stroke="#FFEABC"/>
<path d="M33.4637 65C32.4232 54.3333 24.4738 33 0.999981 33C11.8212 30.7436 33.4637 21.1846 33.4637 0.999998" stroke="#FFEABC"/>
<defs>
<clipPath id="clip0_5_9">
<rect width="32" height="16" fill="white" transform="translate(25 49) rotate(-90)"/>
</clipPath>
</defs>
</svg>
